<svg version="1.1" xmlns="http://www.w3.org/2000/svg" xmlns:xlink="http://www.w3.org/1999/xlink" width="258.3800048828125" height="33.280006408691406"><defs></defs><g transform="translate(-130.29812622070312,15.44000244140625)"><rect fill="rgb(255,255,255)" stroke="none" x="0" y="0" width="258.3800048828125" height="33.280006408691406" fill-opacity="0" transform="translate(130.29812622070312,-15.44000244140625)"></rect><g transform="translate(130.078125,17) rotate(0,0,0) translate(-130.078125,-17) matrix(1,0,0,1,130.078125,17)"><path fill="rgb(0,0,0)" fill-opacity="1" d="M19.14-32.28L19.14-32.28Q19.68-32.28 20.07-31.79Q20.47-31.29 20.74-30.63Q21.01-29.96 21.15-29.27Q21.29-28.57 21.29-28.20L21.29-28.20Q21.29-26.68 20.98-25.42Q20.66-24.17 20.16-23.15Q19.65-22.13 19.02-21.34Q18.39-20.56 17.75-19.96Q17.12-19.36 16.56-18.94Q16.00-18.52 15.62-18.26L15.62-18.26Q15.90-17.98 16.36-17.30Q16.82-16.62 17.24-15.63Q17.66-14.63 17.96-13.32Q18.27-12.00 18.27-10.46L18.27-10.46Q18.27-9.33 17.88-8.07Q17.50-6.80 16.78-5.56Q16.07-4.32 15.02-3.19Q13.98-2.07 12.67-1.21Q11.36-0.36 9.77 0.16Q8.19 0.68 6.41 0.68L6.41 0.68Q5.12 0.68 4.03 0.61Q2.94 0.54 2.12 0.44L2.12 0.44Q1.18 0.35 0.36 0.21L0.36 0.21L0.22-0.03Q0.48-0.54 1.05-2.03Q1.63-3.52 2.38-5.62Q3.13-7.71 4.01-10.25Q4.89-12.78 5.77-15.39Q6.64-18.00 7.46-20.51Q8.29-23.02 8.93-25.08Q9.57-27.14 9.98-28.55Q10.39-29.96 10.44-30.38L10.44-30.38Q10.44-30.50 10.41-30.61Q10.37-30.73 10.30-30.80L10.30-30.80Q9.55-30.73 8.81-30.61Q8.07-30.50 7.46-30.26L7.46-30.26Q7.16-30.14 6.81-29.88Q6.46-29.61 6.15-29.21Q5.85-28.81 5.65-28.33Q5.45-27.85 5.45-27.36L5.45-27.36Q5.45-27.05 5.50-26.59Q5.54-26.14 5.68-25.67L5.68-25.67L5.40-25.39Q4.21-26.25 3.50-27.20Q2.80-28.15 2.80-28.97L2.80-28.97Q2.80-29.44 3.12-30.00Q3.43-30.57 3.90-31.05Q4.37-31.53 4.91-31.86Q5.45-32.18 5.87-32.18L5.87-32.18Q7.30-32.18 8.84-32.07Q10.37-31.95 12.32-31.95L12.32-31.95Q12.74-31.95 13.07-31.95Q13.39-31.95 13.70-31.96Q14.00-31.97 14.32-31.98Q14.64-32.00 15.06-32.04L15.06-32.04L15.20-31.81Q14.89-31.08 14.27-29.31Q13.65-27.54 12.83-25.04L12.83-25.04Q13.68-26.32 14.60-27.61Q15.53-28.90 16.38-29.93Q17.24-30.96 17.95-31.62Q18.67-32.28 19.14-32.28ZM11.73-21.68L5.03-1.27Q5.52-0.99 6.05-0.87Q6.57-0.75 7.04-0.75L7.04-0.75Q8.38-0.75 9.68-1.28Q10.98-1.81 12-2.80Q13.02-3.80 13.65-5.27Q14.29-6.73 14.29-8.63L14.29-8.63Q14.29-11.58 13.42-13.47Q12.55-15.36 11.26-16.32L11.26-16.32L11.17-16.69Q11.52-16.88 12.18-17.20Q12.83-17.51 13.59-18.00Q14.36-18.50 15.15-19.19Q15.95-19.88 16.61-20.84Q17.26-21.80 17.67-23.03Q18.08-24.26 18.08-25.86L18.08-25.86Q18.08-26.00 18.05-26.46Q18.01-26.93 17.93-27.44Q17.85-27.94 17.68-28.34Q17.52-28.74 17.26-28.74L17.26-28.74Q17.14-28.74 16.83-28.41Q16.51-28.08 16.07-27.53Q15.62-26.98 15.07-26.27Q14.52-25.55 13.95-24.77Q13.37-23.98 12.80-23.18Q12.22-22.39 11.73-21.68L11.73-21.68ZM28.89-26.09L28.89-26.09Q29.38-26.09 29.78-25.68Q30.18-25.27 30.18-24.52L30.18-24.52Q30.18-23.79 29.86-23.13Q29.54-22.46 29.07-21.94Q28.61-21.43 28.03-21.12Q27.46-20.82 26.96-20.82L26.96-20.82Q26.75-20.82 26.51-20.88Q26.26-20.93 26.05-21.11Q25.84-21.29 25.70-21.59Q25.56-21.89 25.56-22.36L25.56-22.36Q25.56-23.04 25.85-23.71Q26.14-24.38 26.63-24.91Q27.11-25.43 27.69-25.76Q28.28-26.09 28.89-26.09ZM27.64-17.84L27.74-17.70Q27.48-17.35 27.12-16.57Q26.75-15.80 26.33-14.73Q25.91-13.67 25.46-12.43Q25.02-11.18 24.59-9.91Q24.15-8.63 23.78-7.42Q23.40-6.21 23.11-5.22Q22.82-4.22 22.65-3.53Q22.49-2.84 22.49-2.63L22.49-2.63Q22.49-2.18 22.84-2.18L22.84-2.18Q23.12-2.21 23.64-2.44Q24.15-2.68 24.82-3.14Q25.49-3.61 26.29-4.34Q27.08-5.07 27.93-6.07L27.93-6.07L28.44-5.61Q27.41-4.29 26.20-3.18Q25.00-2.07 23.81-1.23Q22.63-0.40 21.57 0.07Q20.52 0.54 19.82 0.54L19.82 0.54Q19.63 0.54 19.46 0.41Q19.30 0.28 19.18 0.16L19.18 0.16Q18.79-0.31 18.75-0.66Q18.71-1.01 18.71-1.39L18.71-1.39Q18.71-1.93 19.01-3.19Q19.30-4.46 19.75-6.06Q20.19-7.67 20.74-9.43Q21.29-11.18 21.82-12.68Q22.35-14.18 22.78-15.24Q23.21-16.29 23.45-16.50L23.45-16.50Q23.92-16.93 24.62-17.20Q25.32-17.46 26.00-17.61L26.00-17.61Q26.78-17.77 27.64-17.84L27.64-17.84ZM30.08 0.54L30.08 0.54Q29.33 0.54 28.70 0.18Q28.07-0.17 27.62-0.71Q27.18-1.25 26.93-1.89Q26.68-2.54 26.68-3.14L26.68-3.14Q26.68-3.64 27.04-4.95Q27.39-6.26 27.95-8.09Q28.51-9.92 29.24-12.10Q29.96-14.28 30.71-16.50Q31.46-18.73 32.19-20.84Q32.92-22.95 33.48-24.65Q34.04-26.35 34.39-27.47Q34.75-28.60 34.75-28.83L34.75-28.83Q34.75-29.35 34.48-29.55Q34.21-29.75 33.80-29.72Q33.39-29.70 32.92-29.55Q32.45-29.39 32.05-29.21L32.05-29.21L31.77-29.84Q34.16-31.01 35.67-31.48Q37.18-31.95 37.77-31.95L37.77-31.95Q37.93-31.95 38.14-31.82Q38.36-31.69 38.54-31.46Q38.73-31.22 38.87-30.93Q39.01-30.64 39.01-30.33L39.01-30.33Q39.01-30.14 38.47-28.77Q37.93-27.40 37.18-25.18L37.18-25.18L33.25-13.90Q33.90-14.82 34.54-15.60Q35.17-16.39 35.73-16.98Q36.29-17.58 36.81-17.92Q37.32-18.26 37.77-18.26L37.77-18.26Q38.07-18.26 38.50-18.02Q38.92-17.77 39.29-17.38Q39.67-17.00 39.94-16.53Q40.21-16.06 40.21-15.59L40.21-15.59Q40.21-14.75 40.03-13.80Q39.86-12.85 39.57-11.88Q39.29-10.90 38.96-9.99Q38.64-9.07 38.33-8.34Q38.03-7.60 37.79-7.07Q37.56-6.54 37.49-6.38L37.49-6.38Q36.81-4.83 35.84-3.57Q34.86-2.30 33.82-1.39Q32.78-0.47 31.78 0.03Q30.79 0.54 30.08 0.54ZM36.27-15.82L36.27-15.82Q36.04-15.82 35.65-15.41Q35.26-15.00 34.75-14.37Q34.23-13.74 33.63-12.94Q33.04-12.14 32.40-11.37L32.40-11.37Q31.93-9.92 31.37-8.18Q30.81-6.45 30.08-4.06L30.08-4.06Q29.66-2.65 29.74-1.70Q29.82-0.75 30.48-0.75L30.48-0.75Q30.93-0.75 31.42-1.27Q31.91-1.79 32.43-2.64Q32.94-3.50 33.45-4.61Q33.95-5.72 34.41-6.94Q34.86-8.16 35.26-9.39Q35.66-10.62 35.95-11.69Q36.25-12.75 36.41-13.60Q36.57-14.44 36.57-14.86L36.57-14.86Q36.57-14.96 36.56-15.11Q36.55-15.26 36.52-15.43Q36.48-15.59 36.42-15.71Q36.36-15.82 36.27-15.82ZM48.13-28.83L48.13-28.83Q48.13-29.35 47.86-29.55Q47.59-29.75 47.19-29.72Q46.79-29.70 46.32-29.55Q45.86-29.39 45.46-29.21L45.46-29.21L45.15-29.84Q47.54-31.01 49.05-31.48Q50.57-31.95 51.15-31.95L51.15-31.95Q51.32-31.95 51.54-31.82Q51.76-31.69 51.95-31.46Q52.14-31.22 52.28-30.93Q52.42-30.64 52.42-30.33L52.42-30.33Q52.42-30.14 51.88-28.77Q51.34-27.40 50.59-25.18L50.59-25.18Q49.98-23.28 49.42-21.60Q48.86-19.93 48.34-18.39Q47.82-16.86 47.33-15.44Q46.84-14.02 46.35-12.61L46.35-12.61Q47.07-13.55 47.87-14.52Q48.67-15.50 49.39-16.27Q50.12-17.04 50.74-17.54Q51.36-18.03 51.79-18.03L51.79-18.03Q51.95-18.03 52.36-17.88Q52.77-17.72 53.21-17.41Q53.66-17.09 54-16.61Q54.34-16.13 54.36-15.45L54.36-15.45Q54.36-15.21 54.04-14.37Q53.71-13.53 53.23-12.36Q52.75-11.18 52.18-9.80Q51.62-8.42 51.14-7.08Q50.66-5.75 50.33-4.60Q50.00-3.45 50.00-2.72L50.00-2.72Q50.00-2.44 50.06-2.31Q50.12-2.18 50.33-2.18L50.33-2.18Q50.59-2.21 51.11-2.45Q51.62-2.70 52.30-3.19Q52.98-3.68 53.77-4.40Q54.55-5.11 55.32-6.07L55.32-6.07L55.86-5.61Q54.88-4.36 53.65-3.25Q52.42-2.14 51.22-1.29Q50.03-0.45 48.97 0.04Q47.92 0.54 47.26 0.54L47.26 0.54Q47.14 0.54 46.96 0.44Q46.77 0.35 46.58 0.14Q46.39-0.07 46.25-0.45Q46.11-0.82 46.11-1.39L46.11-1.39Q46.11-1.67 46.18-2.10Q46.25-2.54 46.35-2.99Q46.44-3.45 46.55-3.84Q46.65-4.22 46.70-4.41L46.70-4.41Q46.91-5.23 47.30-6.25Q47.68-7.27 48.13-8.37Q48.57-9.47 49.04-10.56Q49.51-11.65 49.89-12.60Q50.26-13.55 50.50-14.27Q50.73-14.98 50.73-15.36L50.73-15.36Q50.73-15.68 50.54-15.68L50.54-15.68Q50.38-15.68 50.05-15.41Q49.72-15.14 49.29-14.70Q48.86-14.25 48.36-13.70Q47.87-13.15 47.38-12.58Q46.89-12.00 46.45-11.48Q46.02-10.95 45.69-10.55L45.69-10.55Q44.87-8.14 44.02-5.55Q43.16-2.96 42.22 0.21L42.22 0.21Q41.96 0.25 41.66 0.28L41.66 0.28Q41.12 0.35 40.25 0.35L40.25 0.35Q39.86 0.35 39.41 0.31Q38.96 0.28 38.54 0.21L38.54 0.21L38.38-0.03Q38.50-0.26 38.99-1.56Q39.48-2.86 40.20-4.86Q40.91-6.85 41.77-9.33Q42.62-11.82 43.51-14.39Q44.40-16.97 45.23-19.46Q46.07-21.94 46.71-23.95Q47.36-25.95 47.74-27.26Q48.13-28.57 48.13-28.83ZM61.54-4.32L61.54-4.32Q61.54-4.34 61.56-4.41L61.56-4.41Q61.58-4.46 61.63-4.64L61.63-4.64Q60.90-3.71 60.15-2.77Q59.40-1.83 58.70-1.09Q58.00-0.36 57.40 0.11Q56.80 0.58 56.40 0.58L56.40 0.58Q56.24 0.58 55.82 0.44Q55.39 0.30 54.96-0.02Q54.53-0.33 54.18-0.82Q53.82-1.32 53.80-2.00L53.80-2.00Q53.80-2.23 54.09-3.14Q54.39-4.06 54.84-5.36Q55.30-6.66 55.82-8.17Q56.33-9.68 56.79-11.13Q57.25-12.57 57.54-13.79Q57.83-15.00 57.83-15.68L57.83-15.68Q57.83-15.87 57.79-16.01Q57.74-16.15 57.69-16.25L57.69-16.25Q57.62-16.34 57.55-16.41L57.55-16.41L57.55-16.74Q58.07-17.07 58.79-17.29Q59.52-17.51 60.20-17.63L60.20-17.63Q60.97-17.77 61.82-17.84L61.82-17.84L61.91-17.70Q61.75-16.46 61.35-14.95Q60.95-13.43 60.46-11.85Q59.96-10.27 59.44-8.72Q58.91-7.18 58.46-5.86Q58.02-4.55 57.74-3.55Q57.46-2.56 57.46-2.09L57.46-2.09Q57.46-1.76 57.64-1.76L57.64-1.76Q57.81-1.76 58.14-2.03Q58.46-2.30 58.90-2.73Q59.33-3.17 59.82-3.71Q60.32-4.25 60.81-4.82Q61.30-5.39 61.73-5.92Q62.17-6.45 62.50-6.85L62.50-6.85Q62.87-7.90 63.32-9.19Q63.76-10.48 64.17-11.70Q64.58-12.92 64.88-13.95Q65.17-14.98 65.24-15.54L65.24-15.54Q65.29-15.80 65.24-15.95Q65.19-16.11 65.12-16.22L65.12-16.22Q65.03-16.34 64.93-16.41L64.93-16.41L64.93-16.74Q65.47-17.07 66.20-17.29Q66.93-17.51 67.61-17.63L67.61-17.63Q68.38-17.77 69.22-17.84L69.22-17.84L69.32-17.70Q69.06-16.46 68.63-15.00Q68.19-13.55 67.69-12.04Q67.18-10.53 66.68-9.06Q66.18-7.60 65.77-6.33Q65.36-5.07 65.10-4.09Q64.84-3.12 64.84-2.63L64.84-2.63Q64.84-2.32 64.90-2.21Q64.96-2.09 65.19-2.09L65.19-2.09Q65.43-2.11 65.95-2.36Q66.48-2.61 67.16-3.10Q67.84-3.59 68.63-4.30Q69.41-5.02 70.18-5.98L70.18-5.98L70.70-5.51Q69.71-4.27 68.50-3.16Q67.28-2.04 66.07-1.20Q64.86-0.36 63.81 0.14Q62.75 0.63 62.12 0.63L62.12 0.63Q62.00 0.63 61.82 0.54Q61.63 0.44 61.44 0.23Q61.25 0.02 61.11-0.34Q60.97-0.71 60.97-1.27L60.97-1.27Q60.97-1.55 61.04-2.00Q61.11-2.44 61.21-2.90Q61.30-3.36 61.39-3.74Q61.49-4.13 61.54-4.32ZM80.94-26.09L80.94-26.09Q80.66-25.43 80.30-24.52Q79.93-23.61 79.51-22.53Q79.09-21.45 78.63-20.23Q78.18-19.01 77.68-17.75L77.68-17.75L80.94-17.84L80.52-16.74L77.29-16.69Q76.49-14.56 75.74-12.44Q74.99-10.32 74.39-8.49Q73.79-6.66 73.43-5.28Q73.07-3.89 73.07-3.24L73.07-3.24Q73.07-2.84 73.16-2.69Q73.25-2.54 73.56-2.54L73.56-2.54Q73.75-2.54 74.34-2.88Q74.94-3.21 75.73-3.85Q76.51-4.48 77.37-5.37Q78.22-6.26 78.97-7.34L78.97-7.34L79.49-6.85Q78.67-5.65 77.51-4.35Q76.35-3.05 75.13-1.96Q73.91-0.87 72.75-0.17Q71.59 0.54 70.77 0.54L70.77 0.54Q70.65 0.54 70.32 0.43Q70.00 0.32 69.81 0.11L69.81 0.11Q69.67-0.07 69.49-0.68Q69.32-1.29 69.32-2.28L69.32-2.28Q69.32-2.96 69.68-4.46Q70.04-5.96 70.64-7.93Q71.24-9.89 72-12.16Q72.76-14.42 73.56-16.64L73.56-16.64L70.86-16.60L71.24-17.61L73.89-17.65L76.82-25.57Q77.26-25.74 77.94-25.86Q78.62-25.97 79.28-26.07L79.28-26.07Q80.05-26.16 80.85-26.23L80.85-26.23Q80.85-26.18 80.89-26.16Q80.94-26.14 80.94-26.09ZM88.30-26.09L88.30-26.09Q88.79-26.09 89.19-25.68Q89.59-25.27 89.59-24.52L89.59-24.52Q89.59-23.79 89.27-23.13Q88.96-22.46 88.49-21.94Q88.02-21.43 87.45-21.12Q86.87-20.82 86.38-20.82L86.38-20.82Q86.17-20.82 85.92-20.88Q85.68-20.93 85.46-21.11Q85.25-21.29 85.11-21.59Q84.97-21.89 84.97-22.36L84.97-22.36Q84.97-23.04 85.27-23.71Q85.56-24.38 86.04-24.91Q86.52-25.43 87.11-25.76Q87.69-26.09 88.30-26.09ZM87.06-17.84L87.15-17.70Q86.89-17.35 86.53-16.57Q86.17-15.80 85.75-14.73Q85.32-13.67 84.88-12.43Q84.43-11.18 84-9.91Q83.57-8.63 83.19-7.42Q82.82-6.21 82.52-5.22Q82.23-4.22 82.07-3.53Q81.90-2.84 81.90-2.63L81.90-2.63Q81.90-2.18 82.25-2.18L82.25-2.18Q82.54-2.21 83.05-2.44Q83.57-2.68 84.23-3.14Q84.90-3.61 85.70-4.34Q86.50-5.07 87.34-6.07L87.34-6.07L87.86-5.61Q86.82-4.29 85.62-3.18Q84.41-2.07 83.23-1.23Q82.04-0.40 80.99 0.07Q79.93 0.54 79.23 0.54L79.23 0.54Q79.04 0.54 78.88 0.41Q78.71 0.28 78.60 0.16L78.60 0.16Q78.20-0.31 78.16-0.66Q78.13-1.01 78.13-1.39L78.13-1.39Q78.13-1.93 78.42-3.19Q78.71-4.46 79.16-6.06Q79.61-7.67 80.16-9.43Q80.71-11.18 81.23-12.68Q81.76-14.18 82.20-15.24Q82.63-16.29 82.86-16.50L82.86-16.50Q83.33-16.93 84.04-17.20Q84.74-17.46 85.42-17.61L85.42-17.61Q86.19-17.77 87.06-17.84L87.06-17.84ZM115.82-32.28L115.82-32.28Q116.36-32.28 116.75-31.79Q117.15-31.29 117.42-30.63Q117.69-29.96 117.83-29.27Q117.97-28.57 117.97-28.20L117.97-28.20Q117.97-26.68 117.66-25.42Q117.34-24.17 116.84-23.15Q116.33-22.13 115.70-21.34Q115.07-20.56 114.43-19.96Q113.80-19.36 113.24-18.94Q112.68-18.52 112.30-18.26L112.30-18.26Q112.58-17.98 113.04-17.30Q113.50-16.62 113.92-15.63Q114.34-14.63 114.64-13.32Q114.95-12.00 114.95-10.46L114.95-10.46Q114.95-9.33 114.56-8.07Q114.18-6.80 113.46-5.56Q112.75-4.32 111.70-3.19Q110.66-2.07 109.35-1.21Q108.04-0.36 106.45 0.16Q104.87 0.68 103.09 0.68L103.09 0.68Q101.80 0.68 100.71 0.61Q99.62 0.54 98.80 0.44L98.80 0.44Q97.86 0.35 97.04 0.21L97.04 0.21L96.90-0.03Q97.16-0.54 97.73-2.03Q98.31-3.52 99.06-5.62Q99.81-7.71 100.69-10.25Q101.57-12.78 102.45-15.39Q103.32-18.00 104.14-20.51Q104.96-23.02 105.61-25.08Q106.25-27.14 106.66-28.55Q107.07-29.96 107.12-30.38L107.12-30.38Q107.12-30.50 107.09-30.61Q107.05-30.73 106.98-30.80L106.98-30.80Q106.23-30.73 105.49-30.61Q104.75-30.50 104.14-30.26L104.14-30.26Q103.84-30.14 103.49-29.88Q103.14-29.61 102.83-29.21Q102.53-28.81 102.33-28.33Q102.13-27.85 102.13-27.36L102.13-27.36Q102.13-27.05 102.18-26.59Q102.22-26.14 102.36-25.67L102.36-25.67L102.08-25.39Q100.89-26.25 100.18-27.20Q99.48-28.15 99.48-28.97L99.48-28.97Q99.48-29.44 99.80-30.00Q100.11-30.57 100.58-31.05Q101.05-31.53 101.59-31.86Q102.13-32.18 102.55-32.18L102.55-32.18Q103.98-32.18 105.52-32.07Q107.05-31.95 109.00-31.95L109.00-31.95Q109.42-31.95 109.75-31.95Q110.07-31.95 110.38-31.96Q110.68-31.97 111-31.98Q111.32-32.00 111.74-32.04L111.74-32.04L111.88-31.81Q111.57-31.08 110.95-29.31Q110.33-27.54 109.51-25.04L109.51-25.04Q110.36-26.32 111.28-27.61Q112.21-28.90 113.06-29.93Q113.92-30.96 114.63-31.62Q115.35-32.28 115.82-32.28ZM108.41-21.68L101.71-1.27Q102.20-0.99 102.73-0.87Q103.25-0.75 103.72-0.75L103.72-0.75Q105.06-0.75 106.36-1.28Q107.66-1.81 108.68-2.80Q109.70-3.80 110.33-5.27Q110.96-6.73 110.96-8.63L110.96-8.63Q110.96-11.58 110.10-13.47Q109.23-15.36 107.94-16.32L107.94-16.32L107.85-16.69Q108.20-16.88 108.86-17.20Q109.51-17.51 110.27-18.00Q111.04-18.50 111.83-19.19Q112.63-19.88 113.29-20.84Q113.94-21.80 114.35-23.03Q114.76-24.26 114.76-25.86L114.76-25.86Q114.76-26.00 114.73-26.46Q114.69-26.93 114.61-27.44Q114.53-27.94 114.36-28.34Q114.20-28.74 113.94-28.74L113.94-28.74Q113.82-28.74 113.51-28.41Q113.19-28.08 112.75-27.53Q112.30-26.98 111.75-26.27Q111.20-25.55 110.63-24.77Q110.05-23.98 109.48-23.18Q108.90-22.39 108.41-21.68L108.41-21.68ZM124.02-28.83L124.02-28.83Q124.02-29.35 123.75-29.55Q123.48-29.75 123.08-29.72Q122.68-29.70 122.21-29.55Q121.75-29.39 121.35-29.21L121.35-29.21L121.04-29.84Q123.43-31.01 124.95-31.48Q126.46-31.95 127.04-31.95L127.04-31.95Q127.21-31.95 127.43-31.82Q127.65-31.69 127.84-31.46Q128.03-31.22 128.17-30.93Q128.31-30.64 128.31-30.33L128.31-30.33Q128.31-30.14 127.77-28.77Q127.23-27.40 126.48-25.18L126.48-25.18Q125.87-23.28 125.31-21.60Q124.75-19.93 124.23-18.39Q123.71-16.86 123.22-15.44Q122.73-14.02 122.24-12.61L122.24-12.61Q122.96-13.55 123.76-14.52Q124.56-15.50 125.29-16.27Q126.01-17.04 126.63-17.54Q127.25-18.03 127.68-18.03L127.68-18.03Q127.84-18.03 128.25-17.88Q128.66-17.72 129.11-17.41Q129.55-17.09 129.89-16.61Q130.23-16.13 130.25-15.45L130.25-15.45Q130.25-15.21 129.93-14.37Q129.60-13.53 129.12-12.36Q128.64-11.18 128.07-9.80Q127.51-8.42 127.03-7.08Q126.55-5.75 126.22-4.60Q125.89-3.45 125.89-2.72L125.89-2.72Q125.89-2.44 125.95-2.31Q126.01-2.18 126.22-2.18L126.22-2.18Q126.48-2.21 127.00-2.45Q127.51-2.70 128.19-3.19Q128.87-3.68 129.66-4.40Q130.44-5.11 131.21-6.07L131.21-6.07L131.75-5.61Q130.77-4.36 129.54-3.25Q128.31-2.14 127.11-1.29Q125.92-0.45 124.86 0.04Q123.81 0.54 123.15 0.54L123.15 0.54Q123.04 0.54 122.85 0.44Q122.66 0.35 122.47 0.14Q122.29-0.07 122.14-0.45Q122.00-0.82 122.00-1.39L122.00-1.39Q122.00-1.67 122.07-2.10Q122.14-2.54 122.24-2.99Q122.33-3.45 122.44-3.84Q122.54-4.22 122.59-4.41L122.59-4.41Q122.80-5.23 123.19-6.25Q123.57-7.27 124.02-8.37Q124.46-9.47 124.93-10.56Q125.40-11.65 125.78-12.60Q126.15-13.55 126.39-14.27Q126.62-14.98 126.62-15.36L126.62-15.36Q126.62-15.68 126.43-15.68L126.43-15.68Q126.27-15.68 125.94-15.41Q125.61-15.14 125.18-14.70Q124.75-14.25 124.25-13.70Q123.76-13.15 123.27-12.58Q122.78-12.00 122.34-11.48Q121.91-10.95 121.58-10.55L121.58-10.55Q120.76-8.14 119.91-5.55Q119.05-2.96 118.11 0.21L118.11 0.21Q117.86 0.25 117.55 0.28L117.55 0.28Q117.01 0.35 116.14 0.35L116.14 0.35Q115.75 0.35 115.30 0.31Q114.86 0.28 114.43 0.21L114.43 0.21L114.27-0.03Q114.39-0.26 114.88-1.56Q115.37-2.86 116.09-4.86Q116.80-6.85 117.66-9.33Q118.51-11.82 119.40-14.39Q120.29-16.97 121.13-19.46Q121.96-21.94 122.60-23.95Q123.25-25.95 123.63-27.26Q124.02-28.57 124.02-28.83ZM137.43-4.32L137.43-4.32Q137.43-4.34 137.45-4.41L137.45-4.41Q137.47-4.46 137.52-4.64L137.52-4.64Q136.79-3.71 136.04-2.77Q135.29-1.83 134.59-1.09Q133.89-0.36 133.29 0.11Q132.69 0.58 132.29 0.58L132.29 0.58Q132.13 0.58 131.71 0.44Q131.29 0.30 130.85-0.02Q130.42-0.33 130.07-0.82Q129.71-1.32 129.69-2.00L129.69-2.00Q129.69-2.23 129.98-3.14Q130.28-4.06 130.73-5.36Q131.19-6.66 131.71-8.17Q132.22-9.68 132.68-11.13Q133.14-12.57 133.43-13.79Q133.72-15.00 133.72-15.68L133.72-15.68Q133.72-15.87 133.68-16.01Q133.63-16.15 133.58-16.25L133.58-16.25Q133.51-16.34 133.44-16.41L133.44-16.41L133.44-16.74Q133.96-17.07 134.68-17.29Q135.41-17.51 136.09-17.63L136.09-17.63Q136.86-17.77 137.71-17.84L137.71-17.84L137.80-17.70Q137.64-16.46 137.24-14.95Q136.84-13.43 136.35-11.85Q135.86-10.27 135.33-8.72Q134.80-7.18 134.36-5.86Q133.91-4.55 133.63-3.55Q133.35-2.56 133.35-2.09L133.35-2.09Q133.35-1.76 133.54-1.76L133.54-1.76Q133.70-1.76 134.03-2.03Q134.36-2.30 134.79-2.73Q135.22-3.17 135.71-3.71Q136.21-4.25 136.70-4.82Q137.19-5.39 137.63-5.92Q138.06-6.45 138.39-6.85L138.39-6.85Q138.76-7.90 139.21-9.19Q139.65-10.48 140.06-11.70Q140.47-12.92 140.77-13.95Q141.06-14.98 141.13-15.54L141.13-15.54Q141.18-15.80 141.13-15.95Q141.08-16.11 141.01-16.22L141.01-16.22Q140.92-16.34 140.82-16.41L140.82-16.41L140.82-16.74Q141.36-17.07 142.09-17.29Q142.82-17.51 143.50-17.63L143.50-17.63Q144.27-17.77 145.11-17.84L145.11-17.84L145.21-17.70Q144.95-16.46 144.52-15.00Q144.08-13.55 143.58-12.04Q143.07-10.53 142.57-9.06Q142.07-7.60 141.66-6.33Q141.25-5.07 140.99-4.09Q140.73-3.12 140.73-2.63L140.73-2.63Q140.73-2.32 140.79-2.21Q140.85-2.09 141.08-2.09L141.08-2.09Q141.32-2.11 141.84-2.36Q142.37-2.61 143.05-3.10Q143.73-3.59 144.52-4.30Q145.30-5.02 146.07-5.98L146.07-5.98L146.59-5.51Q145.61-4.27 144.39-3.16Q143.17-2.04 141.96-1.20Q140.75-0.36 139.70 0.14Q138.64 0.63 138.01 0.63L138.01 0.63Q137.89 0.63 137.71 0.54Q137.52 0.44 137.33 0.23Q137.14 0.02 137.00-0.34Q136.86-0.71 136.86-1.27L136.86-1.27Q136.86-1.55 136.93-2.00Q137.00-2.44 137.10-2.90Q137.19-3.36 137.29-3.74Q137.38-4.13 137.43-4.32ZM153.53-18.21L153.53-18.21Q154.02-18.21 154.37-17.88Q154.72-17.54 154.93-17.00Q155.14-16.46 155.18-15.75Q155.21-15.05 155.05-14.35L155.05-14.35Q154.86-13.50 154.31-12.98Q153.76-12.45 153.15-12.14L153.15-12.14Q152.45-11.79 151.61-11.61L151.61-11.61Q152.10-12.54 152.23-13.20Q152.36-13.86 152.36-14.44L152.36-14.44Q152.36-14.68 152.32-14.92Q152.29-15.17 152.20-15.38Q152.12-15.59 151.98-15.73Q151.84-15.87 151.65-15.87L151.65-15.87Q151.44-15.87 151.15-15.72Q150.86-15.57 150.59-15.29Q150.32-15.00 150.14-14.62Q149.96-14.23 149.96-13.76L149.96-13.76Q149.96-13.57 150.15-13.01Q150.34-12.45 150.61-11.64Q150.88-10.83 151.20-9.87Q151.51-8.91 151.78-7.95Q152.05-6.99 152.24-6.10Q152.43-5.21 152.43-4.55L152.43-4.55Q152.43-3.89 152.00-3.25Q151.58-2.61 150.95-2.02Q150.32-1.43 149.55-0.93Q148.79-0.43 148.10-0.05Q147.41 0.32 146.91 0.54Q146.40 0.75 146.26 0.75L146.26 0.75Q146.05 0.75 145.70 0.69Q145.35 0.63 145.11 0.49L145.11 0.49Q144.86 0.35 144.57-0.00Q144.29-0.36 144.02-0.82Q143.75-1.29 143.53-1.83Q143.31-2.37 143.19-2.86L143.19-2.86L146.07-5.46Q146.26-4.34 146.57-3.47L146.57-3.47Q146.71-3.10 146.87-2.73Q147.04-2.37 147.25-2.09Q147.46-1.81 147.71-1.64Q147.97-1.48 148.28-1.48L148.28-1.48Q148.75-1.48 148.99-1.89Q149.24-2.30 149.24-2.91L149.24-2.91Q149.24-3.10 149.06-3.77Q148.89-4.43 148.61-5.32Q148.32-6.21 148.02-7.23Q147.71-8.25 147.43-9.13Q147.15-10.01 146.98-10.64Q146.80-11.28 146.80-11.42L146.80-11.42Q146.80-11.82 146.95-12.43Q147.11-13.04 147.43-13.48L147.43-13.48Q147.55-13.64 147.97-14.07Q148.39-14.49 148.97-15.02Q149.54-15.54 150.20-16.11Q150.86-16.67 151.50-17.14Q152.14-17.61 152.67-17.91Q153.20-18.21 153.53-18.21ZM169.18-6.47L169.70-5.98Q168.67-4.74 167.48-3.58Q166.30-2.42 165.16-1.53Q164.03-0.64 163.04-0.10Q162.06 0.44 161.40 0.44L161.40 0.44Q161.26 0.44 161.05 0.31Q160.84 0.18 160.77 0.07L160.77 0.07Q160.51-0.40 160.41-1.12Q160.30-1.83 160.30-2.44L160.30-2.44Q160.30-2.63 160.36-2.97Q160.42-3.31 160.49-3.68L160.49-3.68Q159.71-2.86 158.88-2.10Q158.05-1.34 157.29-0.75Q156.53-0.17 155.93 0.18Q155.33 0.54 155.05 0.54L155.05 0.54Q154.86 0.54 154.73 0.39Q154.61 0.25 154.50 0.02Q154.39-0.21 154.34-0.47Q154.28-0.73 154.25-0.99L154.25-0.99Q154.18-1.81 154.31-2.78Q154.44-3.75 154.68-4.76Q154.91-5.77 155.20-6.74Q155.50-7.71 155.78-8.52Q156.06-9.33 156.27-9.89Q156.48-10.46 156.55-10.64L156.55-10.64Q156.64-10.93 156.87-11.31Q157.09-11.70 157.37-12.09Q157.65-12.47 157.95-12.84Q158.24-13.20 158.52-13.48L158.52-13.48Q159.04-13.97 159.86-14.54Q160.68-15.10 161.65-15.64Q162.62-16.18 163.65-16.69Q164.68-17.21 165.61-17.58Q166.54-17.96 167.26-18.19Q167.99-18.43 168.36-18.43L168.36-18.43Q168.69-18.43 168.94-18.40Q169.18-18.38 169.32-18.33L169.32-18.33L169.37-18.21Q169.11-17.89 168.74-17.09Q168.36-16.29 167.92-15.24Q167.47-14.18 167.00-12.92Q166.54-11.65 166.08-10.36Q165.62-9.07 165.22-7.84Q164.82-6.61 164.51-5.61Q164.19-4.60 164.02-3.91Q163.84-3.21 163.84-3.00L163.84-3.00Q163.84-2.58 164.19-2.58L164.19-2.58Q164.43-2.61 164.94-2.85Q165.46-3.10 166.14-3.59Q166.82-4.08 167.60-4.80Q168.39-5.51 169.18-6.47L169.18-6.47ZM158.19-2.86L158.19-2.86Q158.38-2.86 158.68-3.07Q158.99-3.29 159.34-3.61Q159.69-3.94 160.09-4.38Q160.49-4.81 160.86-5.25L160.86-5.25Q161.10-6.07 161.39-7.06Q161.68-8.04 162.01-9.07Q162.34-10.11 162.69-11.14Q163.04-12.17 163.38-13.09Q163.72-14.02 164.03-14.78Q164.33-15.54 164.57-16.06L164.57-16.06Q164.19-15.94 163.58-15.72Q162.97-15.50 162.22-14.91L162.22-14.91Q161.59-14.42 161.03-13.43Q160.46-12.45 160.00-11.22Q159.53-9.99 159.14-8.68Q158.75-7.36 158.48-6.24Q158.21-5.11 158.07-4.32Q157.93-3.52 157.93-3.36L157.93-3.36Q157.93-3.17 157.97-3.02Q158.00-2.86 158.19-2.86ZM170.61 0.21L170.61 0.21Q170.36 0.25 170.05 0.28L170.05 0.28Q169.51 0.35 168.64 0.35L168.64 0.35Q168.25 0.35 167.80 0.31Q167.36 0.28 166.93 0.21L166.93 0.21L166.77-0.03Q166.89-0.26 167.18-0.99Q167.47-1.71 167.86-2.75Q168.25-3.78 168.70-5.04Q169.16-6.31 169.61-7.62Q170.05-8.93 170.47-10.20Q170.89-11.46 171.21-12.52Q171.53-13.57 171.73-14.31Q171.93-15.05 171.93-15.31L171.93-15.31Q171.93-15.57 171.87-15.71Q171.81-15.85 171.76-15.96L171.76-15.96Q171.69-16.06 171.62-16.15L171.62-16.15L171.62-16.50Q172.16-16.83 172.89-17.09Q173.61-17.35 174.29-17.51L174.29-17.51Q175.07-17.70 175.91-17.84L175.91-17.84L176.00-17.70Q176.00-17.42 175.89-16.79Q175.77-16.15 175.61-15.43Q175.44-14.70 175.27-14.01Q175.09-13.32 175.00-12.89L175.00-12.89Q175.72-13.81 176.47-14.73Q177.22-15.66 177.91-16.39Q178.61-17.11 179.19-17.57Q179.78-18.03 180.18-18.03L180.18-18.03Q180.34-18.03 180.75-17.88Q181.16-17.72 181.61-17.41Q182.05-17.09 182.39-16.61Q182.73-16.13 182.75-15.45L182.75-15.45Q182.75-15.21 182.43-14.37Q182.10-13.53 181.62-12.36Q181.14-11.18 180.57-9.80Q180.01-8.42 179.53-7.08Q179.05-5.75 178.72-4.60Q178.39-3.45 178.39-2.72L178.39-2.72Q178.39-2.44 178.45-2.31Q178.51-2.18 178.72-2.18L178.72-2.18Q178.98-2.21 179.50-2.45Q180.01-2.70 180.69-3.19Q181.37-3.68 182.16-4.40Q182.94-5.11 183.71-6.07L183.71-6.07L184.25-5.61Q183.27-4.36 182.04-3.25Q180.81-2.14 179.61-1.29Q178.42-0.45 177.36 0.04Q176.31 0.54 175.65 0.54L175.65 0.54Q175.54 0.54 175.35 0.44Q175.16 0.35 174.97 0.14Q174.79-0.07 174.64-0.45Q174.50-0.82 174.50-1.39L174.50-1.39Q174.50-1.67 174.57-2.10Q174.64-2.54 174.74-2.99Q174.83-3.45 174.94-3.84Q175.04-4.22 175.09-4.41L175.09-4.41Q175.30-5.23 175.69-6.25Q176.07-7.27 176.52-8.37Q176.96-9.47 177.43-10.56Q177.90-11.65 178.28-12.60Q178.65-13.55 178.89-14.27Q179.12-14.98 179.12-15.36L179.12-15.36Q179.12-15.68 178.93-15.68L178.93-15.68Q178.70-15.68 178.13-15.17Q177.55-14.65 176.86-13.89Q176.17-13.13 175.46-12.30Q174.76-11.46 174.27-10.83L174.27-10.83Q173.78-9.40 173.24-7.89Q172.70-6.38 172.21-4.91Q171.71-3.45 171.30-2.14Q170.89-0.82 170.61 0.21ZM203.21-23.11L202.98-23.51Q203.12-23.68 203.29-24.04Q203.45-24.40 203.59-24.88Q203.73-25.36 203.81-25.94Q203.89-26.51 203.89-27.10L203.89-27.10Q203.89-28.27 203.44-28.82Q202.98-29.37 202.42-29.37L202.42-29.37Q202.11-29.37 201.79-29.18Q201.46-29.00 201.20-28.61Q200.94-28.22 200.77-27.64Q200.59-27.05 200.59-26.23L200.59-26.23Q200.59-25.81 200.79-24.73Q200.99-23.65 201.29-22.20Q201.60-20.75 201.94-19.05Q202.28-17.35 202.58-15.66Q202.89-13.97 203.09-12.44Q203.29-10.90 203.29-9.78L203.29-9.78Q203.29-8.65 202.90-7.42Q202.51-6.19 201.90-5.01Q201.29-3.82 200.57-2.77Q199.84-1.71 199.16-0.91Q198.48-0.10 197.94 0.37Q197.40 0.84 197.17 0.84L197.17 0.84Q196.77 0.84 196.43 0.79Q196.09 0.75 195.69 0.58L195.69 0.58Q194.94 0.16 194.16-0.50Q193.37-1.15 192.66-1.93Q191.94-2.70 191.34-3.51Q190.75-4.32 190.37-5.07L190.37-5.07Q190.91-5.82 191.50-6.52L191.50-6.52Q191.99-7.13 192.59-7.79Q193.18-8.44 193.77-8.96L193.77-8.96L193.82-8.96Q194.17-8.04 194.71-6.94Q195.25-5.84 195.87-4.88Q196.49-3.92 197.14-3.27Q197.80-2.63 198.39-2.63L198.39-2.63Q198.50-2.63 198.75-2.70Q199.00-2.77 199.23-3.02Q199.46-3.26 199.64-3.77Q199.82-4.27 199.82-5.16L199.82-5.16Q199.82-5.77 199.59-7.20Q199.37-8.63 199.02-10.46Q198.67-12.29 198.28-14.30Q197.89-16.32 197.54-18.10Q197.19-19.88 196.97-21.23Q196.75-22.57 196.75-23.07L196.75-23.07Q196.75-24.10 197.18-25.07Q197.61-26.04 198.21-26.88Q198.81-27.71 199.44-28.34Q200.07-28.97 200.45-29.32L200.45-29.32Q201.01-29.79 201.70-30.33Q202.39-30.87 203.09-31.34Q203.78-31.81 204.39-32.13Q205.00-32.44 205.39-32.44L205.39-32.44Q205.79-32.44 206.12-32.27Q206.45-32.09 206.70-31.66Q206.94-31.22 207.07-30.46Q207.20-29.70 207.20-28.50L207.20-28.50Q207.20-27.96 207.02-27.46Q206.85-26.96 206.57-26.48Q206.29-26.00 205.93-25.56Q205.58-25.13 205.21-24.75L205.21-24.75Q204.32-23.86 203.21-23.11L203.21-23.11ZM218.99-6.47L219.50-5.98Q218.47-4.74 217.29-3.58Q216.11-2.42 214.97-1.53Q213.83-0.64 212.85-0.10Q211.86 0.44 211.21 0.44L211.21 0.44Q211.07 0.44 210.86 0.31Q210.64 0.18 210.57 0.07L210.57 0.07Q210.32-0.40 210.21-1.12Q210.11-1.83 210.11-2.44L210.11-2.44Q210.11-2.63 210.16-2.97Q210.22-3.31 210.29-3.68L210.29-3.68Q209.52-2.86 208.69-2.10Q207.86-1.34 207.09-0.75Q206.33-0.17 205.73 0.18Q205.14 0.54 204.86 0.54L204.86 0.54Q204.67 0.54 204.54 0.39Q204.41 0.25 204.30 0.02Q204.20-0.21 204.14-0.47Q204.08-0.73 204.06-0.99L204.06-0.99Q203.99-1.81 204.12-2.78Q204.25-3.75 204.48-4.76Q204.71-5.77 205.01-6.74Q205.30-7.71 205.58-8.52Q205.86-9.33 206.07-9.89Q206.29-10.46 206.36-10.64L206.36-10.64Q206.45-10.93 206.67-11.31Q206.89-11.70 207.18-12.09Q207.46-12.47 207.75-12.84Q208.04-13.20 208.32-13.48L208.32-13.48Q208.84-13.97 209.66-14.54Q210.48-15.10 211.45-15.64Q212.43-16.18 213.46-16.69Q214.49-17.21 215.41-17.58Q216.34-17.96 217.07-18.19Q217.79-18.43 218.17-18.43L218.17-18.43Q218.50-18.43 218.74-18.40Q218.99-18.38 219.13-18.33L219.13-18.33L219.18-18.21Q218.92-17.89 218.54-17.09Q218.17-16.29 217.72-15.24Q217.28-14.18 216.81-12.92Q216.34-11.65 215.88-10.36Q215.43-9.07 215.03-7.84Q214.63-6.61 214.31-5.61Q214.00-4.60 213.82-3.91Q213.64-3.21 213.64-3.00L213.64-3.00Q213.64-2.58 214.00-2.58L214.00-2.58Q214.23-2.61 214.75-2.85Q215.26-3.10 215.94-3.59Q216.62-4.08 217.41-4.80Q218.19-5.51 218.99-6.47L218.99-6.47ZM208.00-2.86L208.00-2.86Q208.18-2.86 208.49-3.07Q208.79-3.29 209.14-3.61Q209.50-3.94 209.89-4.38Q210.29-4.81 210.67-5.25L210.67-5.25Q210.90-6.07 211.20-7.06Q211.49-8.04 211.82-9.07Q212.14-10.11 212.50-11.14Q212.85-12.17 213.19-13.09Q213.53-14.02 213.83-14.78Q214.14-15.54 214.37-16.06L214.37-16.06Q214.00-15.94 213.39-15.72Q212.78-15.50 212.03-14.91L212.03-14.91Q211.39-14.42 210.83-13.43Q210.27-12.45 209.80-11.22Q209.33-9.99 208.95-8.68Q208.56-7.36 208.29-6.24Q208.02-5.11 207.88-4.32Q207.74-3.52 207.74-3.36L207.74-3.36Q207.74-3.17 207.77-3.02Q207.81-2.86 208.00-2.86ZM226.32-28.83L226.32-28.83Q226.32-29.35 226.05-29.55Q225.79-29.75 225.39-29.72Q224.99-29.70 224.52-29.55Q224.05-29.39 223.65-29.21L223.65-29.21L223.35-29.84Q225.74-31.01 227.25-31.48Q228.76-31.95 229.35-31.95L229.35-31.95Q229.51-31.95 229.73-31.82Q229.96-31.69 230.14-31.46Q230.33-31.22 230.47-30.93Q230.61-30.64 230.61-30.33L230.61-30.33Q230.61-30.14 230.07-28.77Q229.54-27.40 228.79-25.18L228.79-25.18Q228.18-23.28 227.61-21.60Q227.05-19.93 226.54-18.39Q226.02-16.86 225.53-15.44Q225.04-14.02 224.54-12.61L224.54-12.61Q225.27-13.55 226.07-14.52Q226.86-15.50 227.59-16.27Q228.32-17.04 228.94-17.54Q229.56-18.03 229.98-18.03L229.98-18.03Q230.14-18.03 230.55-17.88Q230.96-17.72 231.41-17.41Q231.86-17.09 232.20-16.61Q232.54-16.13 232.56-15.45L232.56-15.45Q232.56-15.21 232.23-14.37Q231.90-13.53 231.42-12.36Q230.94-11.18 230.38-9.80Q229.82-8.42 229.34-7.08Q228.86-5.75 228.53-4.60Q228.20-3.45 228.20-2.72L228.20-2.72Q228.20-2.44 228.26-2.31Q228.32-2.18 228.53-2.18L228.53-2.18Q228.79-2.21 229.30-2.45Q229.82-2.70 230.50-3.19Q231.18-3.68 231.96-4.40Q232.75-5.11 233.52-6.07L233.52-6.07L234.06-5.61Q233.07-4.36 231.84-3.25Q230.61-2.14 229.42-1.29Q228.22-0.45 227.17 0.04Q226.11 0.54 225.46 0.54L225.46 0.54Q225.34 0.54 225.15 0.44Q224.96 0.35 224.78 0.14Q224.59-0.07 224.45-0.45Q224.31-0.82 224.31-1.39L224.31-1.39Q224.31-1.67 224.38-2.10Q224.45-2.54 224.54-2.99Q224.64-3.45 224.74-3.84Q224.85-4.22 224.89-4.41L224.89-4.41Q225.11-5.23 225.49-6.25Q225.88-7.27 226.32-8.37Q226.77-9.47 227.24-10.56Q227.71-11.65 228.08-12.60Q228.46-13.55 228.69-14.27Q228.93-14.98 228.93-15.36L228.93-15.36Q228.93-15.68 228.74-15.68L228.74-15.68Q228.57-15.68 228.25-15.41Q227.92-15.14 227.48-14.70Q227.05-14.25 226.56-13.70Q226.07-13.15 225.57-12.58Q225.08-12.00 224.65-11.48Q224.21-10.95 223.89-10.55L223.89-10.55Q223.07-8.14 222.21-5.55Q221.36-2.96 220.42 0.21L220.42 0.21Q220.16 0.25 219.86 0.28L219.86 0.28Q219.32 0.35 218.45 0.35L218.45 0.35Q218.05 0.35 217.61 0.31Q217.16 0.28 216.74 0.21L216.74 0.21L216.57-0.03Q216.69-0.26 217.18-1.56Q217.68-2.86 218.39-4.86Q219.11-6.85 219.96-9.33Q220.82-11.82 221.71-14.39Q222.60-16.97 223.43-19.46Q224.26-21.94 224.91-23.95Q225.55-25.95 225.94-27.26Q226.32-28.57 226.32-28.83ZM234.69-11.98L234.69-11.98Q235.25-13.34 236.07-14.43Q236.89-15.52 237.88-16.28Q238.86-17.04 239.96-17.44Q241.07-17.84 242.19-17.84L242.19-17.84Q242.68-17.84 243.28-17.57Q243.88-17.30 244.39-16.83Q244.91-16.36 245.25-15.70Q245.59-15.03 245.59-14.23L245.59-14.23Q245.59-13.55 245.43-12.67Q245.26-11.79 245.00-10.87Q244.75-9.94 244.44-9.03Q244.14-8.11 243.86-7.35Q243.57-6.59 243.35-6.05Q243.13-5.51 243.04-5.32L243.04-5.32Q242.47-3.94 241.65-2.86Q240.83-1.79 239.85-1.02Q238.86-0.26 237.77 0.14Q236.68 0.54 235.56 0.54L235.56 0.54Q235.07 0.54 234.47 0.28Q233.87 0.02 233.36-0.46Q232.84-0.94 232.50-1.60Q232.16-2.25 232.16-3.05L232.16-3.05Q232.16-3.75 232.32-4.63Q232.49-5.51 232.75-6.44Q233.00-7.36 233.31-8.28Q233.61-9.19 233.89-9.94Q234.18-10.69 234.39-11.24Q234.60-11.79 234.69-11.98ZM241.18-16.55L241.18-16.55Q240.64-16.55 240.02-15.60Q239.40-14.65 238.78-13.18Q238.16-11.70 237.59-9.95Q237.01-8.21 236.58-6.59Q236.14-4.97 235.88-3.74Q235.61-2.51 235.61-2.09L235.61-2.09Q235.61-1.41 235.86-1.11Q236.12-0.80 236.57-0.80L236.57-0.80Q236.96-0.80 237.41-1.35Q237.86-1.90 238.32-2.82Q238.79-3.73 239.25-4.93Q239.71-6.12 240.13-7.40Q240.55-8.68 240.91-9.94Q241.28-11.21 241.55-12.29Q241.82-13.36 241.97-14.15Q242.12-14.93 242.12-15.24L242.12-15.24Q242.12-15.92 241.86-16.23Q241.61-16.55 241.18-16.55ZM247.70-11.98L247.70-11.98Q248.26-13.34 249.08-14.43Q249.90-15.52 250.89-16.28Q251.87-17.04 252.97-17.44Q254.07-17.84 255.20-17.84L255.20-17.84Q255.69-17.84 256.29-17.57Q256.89-17.30 257.40-16.83Q257.92-16.36 258.26-15.70Q258.60-15.03 258.60-14.23L258.60-14.23Q258.60-13.55 258.43-12.67Q258.27-11.79 258.01-10.87Q257.75-9.94 257.45-9.03Q257.14-8.11 256.86-7.35Q256.58-6.59 256.36-6.05Q256.14-5.51 256.04-5.32L256.04-5.32Q255.48-3.94 254.66-2.86Q253.84-1.79 252.86-1.02Q251.87-0.26 250.78 0.14Q249.69 0.54 248.57 0.54L248.57 0.54Q248.07 0.54 247.48 0.28Q246.88 0.02 246.36-0.46Q245.85-0.94 245.51-1.60Q245.17-2.25 245.17-3.05L245.17-3.05Q245.17-3.75 245.33-4.63Q245.50-5.51 245.75-6.44Q246.01-7.36 246.32-8.28Q246.62-9.19 246.90-9.94Q247.18-10.69 247.39-11.24Q247.61-11.79 247.70-11.98ZM254.19-16.55L254.19-16.55Q253.65-16.55 253.03-15.60Q252.41-14.65 251.79-13.18Q251.17-11.70 250.59-9.95Q250.02-8.21 249.59-6.59Q249.15-4.97 248.88-3.74Q248.61-2.51 248.61-2.09L248.61-2.09Q248.61-1.41 248.87-1.11Q249.13-0.80 249.57-0.80L249.57-0.80Q249.97-0.80 250.42-1.35Q250.86-1.90 251.33-2.82Q251.80-3.73 252.26-4.93Q252.71-6.12 253.14-7.40Q253.56-8.68 253.92-9.94Q254.29-11.21 254.55-12.29Q254.82-13.36 254.98-14.15Q255.13-14.93 255.13-15.24L255.13-15.24Q255.13-15.92 254.87-16.23Q254.61-16.55 254.19-16.55Z"></path></g></g></svg>